<?xml version="1.0" encoding="utf-8"?>
<!-- Generator: Adobe Illustrator 24.0.0, SVG Export Plug-In . SVG Version: 6.00 Build 0)  -->
<svg version="1.1" id="Layer_1" xmlns="http://www.w3.org/2000/svg" xmlns:xlink="http://www.w3.org/1999/xlink" x="0px" y="0px"
	 viewBox="0 0 100 100" style="enable-background:new 0 0 100 100;" xml:space="preserve">
<g>
	<g>
		<path d="M75,97.1H25c-4.3,0-8.2-2.7-9.6-6.7c0-0.1,0-0.1-0.1-0.2L5,50.5c-0.2-0.6,0-1.3,0.4-1.8C5.7,48.2,6.3,48,7,48H93
			c0.6,0,1.2,0.3,1.6,0.8c0.4,0.5,0.5,1.2,0.4,1.8L84.7,90.2c0,0.1,0,0.1-0.1,0.2C83.2,94.4,79.3,97.1,75,97.1z M19.3,89.1
			c0.9,2.4,3.2,4,5.7,4h50c2.5,0,4.8-1.6,5.7-4l9.6-37H9.6L19.3,89.1z"/>
	</g>
	<g>
		<path d="M88.9,39.8H11.1c-0.7,0-1.4-0.4-1.7-1c-0.4-0.6-0.4-1.3-0.1-2l9.3-19.3c1.6-3.9,5.3-6.4,9.5-6.4h7.7c1.1,0,2,0.9,2,2
			s-0.9,2-2,2H28c-2.5,0-4.8,1.5-5.7,3.9c0,0,0,0.1-0.1,0.1l-7.9,16.5h71.4l-7.9-16.5c0,0,0-0.1-0.1-0.1c-0.9-2.4-3.2-3.9-5.7-3.9
			h-7.7c-1.1,0-2-0.9-2-2s0.9-2,2-2H72c4.2,0,7.9,2.5,9.5,6.4l9.3,19.3c0.3,0.6,0.3,1.4-0.1,2C90.3,39.4,89.6,39.8,88.9,39.8z"/>
	</g>
	<g>
		<path d="M58.2,19.3H41.8c-4.5,0-8.2-3.7-8.2-8.2s3.7-8.2,8.2-8.2h16.4c4.5,0,8.2,3.7,8.2,8.2S62.7,19.3,58.2,19.3z M41.8,7
			c-2.3,0-4.1,1.8-4.1,4.1s1.8,4.1,4.1,4.1h16.4c2.3,0,4.1-1.8,4.1-4.1S60.5,7,58.2,7H41.8z"/>
	</g>
	<g>
		<path d="M93,52H7c-3.4,0-6.1-2.8-6.1-6.1v-4.1c0-3.4,2.8-6.1,6.1-6.1H93c3.4,0,6.1,2.8,6.1,6.1v4.1C99.2,49.3,96.4,52,93,52z
			 M7,39.8c-1.1,0-2,0.9-2,2v4.1c0,1.1,0.9,2,2,2H93c1.1,0,2.1-0.9,2.1-2v-4.1c0-1.1-0.9-2-2.1-2H7z"/>
	</g>
	<g>
		<path d="M31.6,84.8c-1.1,0-2-0.9-2-2V62.3c0-1.1,0.9-2,2-2c1.1,0,2,0.9,2,2v20.5C33.6,83.9,32.7,84.8,31.6,84.8z"/>
	</g>
	<g>
		<path d="M52.1,84.8c-1.1,0-2-0.9-2-2V62.3c0-1.1,0.9-2,2-2s2,0.9,2,2v20.5C54.1,83.9,53.2,84.8,52.1,84.8z"/>
	</g>
	<g>
		<path d="M72.5,84.8c-1.1,0-2-0.9-2-2V62.3c0-1.1,0.9-2,2-2c1.1,0,2,0.9,2,2v20.5C74.6,83.9,73.7,84.8,72.5,84.8z"/>
	</g>
</g>
</svg>
